<svg id="visual" viewBox="0 0 960 300" width="960" height="300" xmlns="http://www.w3.org/2000/svg" xmlns:xlink="http://www.w3.org/1999/xlink" version="1.1"><rect x="0" y="0" width="960" height="300" fill="#3A9188"></rect><path d="M0 150L9.3 139.8C18.7 129.7 37.3 109.3 56.2 104C75 98.7 94 108.3 112.8 108C131.7 107.7 150.3 97.3 169.2 88.2C188 79 207 71 225.8 77.7C244.7 84.3 263.3 105.7 282.2 121.5C301 137.3 320 147.7 338.8 142.5C357.7 137.3 376.3 116.7 395.2 103.5C414 90.3 433 84.7 451.8 82.7C470.7 80.7 489.3 82.3 508.2 87C527 91.7 546 99.3 564.8 99.7C583.7 100 602.3 93 621.2 90.8C640 88.7 659 91.3 677.8 91.3C696.7 91.3 715.3 88.7 734.2 86.7C753 84.7 772 83.3 790.8 82.8C809.7 82.3 828.3 82.7 847.2 95.5C866 108.3 885 133.7 903.8 143C922.7 152.3 941.3 145.7 950.7 142.3L960 139L960 301L950.7 301C941.3 301 922.7 301 903.8 301C885 301 866 301 847.2 301C828.3 301 809.7 301 790.8 301C772 301 753 301 734.2 301C715.3 301 696.7 301 677.8 301C659 301 640 301 621.2 301C602.3 301 583.7 301 564.8 301C546 301 527 301 508.2 301C489.3 301 470.7 301 451.8 301C433 301 414 301 395.2 301C376.3 301 357.7 301 338.8 301C320 301 301 301 282.2 301C263.3 301 244.7 301 225.8 301C207 301 188 301 169.2 301C150.3 301 131.7 301 112.8 301C94 301 75 301 56.2 301C37.3 301 18.7 301 9.3 301L0 301Z" fill="#3a9188"></path><path d="M0 148L9.3 146.7C18.7 145.3 37.3 142.7 56.2 144.8C75 147 94 154 112.8 151.2C131.7 148.3 150.3 135.7 169.2 124.2C188 112.7 207 102.3 225.8 112C244.7 121.7 263.3 151.3 282.2 157C301 162.7 320 144.3 338.8 140.3C357.7 136.3 376.3 146.7 395.2 146C414 145.3 433 133.7 451.8 124.7C470.7 115.7 489.3 109.3 508.2 104C527 98.7 546 94.3 564.8 96.2C583.7 98 602.3 106 621.2 113.2C640 120.3 659 126.7 677.8 136.3C696.7 146 715.3 159 734.2 165.3C753 171.7 772 171.3 790.8 169.5C809.7 167.7 828.3 164.3 847.2 164.5C866 164.7 885 168.3 903.8 165.3C922.7 162.3 941.3 152.7 950.7 147.8L960 143L960 301L950.7 301C941.3 301 922.7 301 903.8 301C885 301 866 301 847.2 301C828.3 301 809.7 301 790.8 301C772 301 753 301 734.2 301C715.3 301 696.7 301 677.8 301C659 301 640 301 621.2 301C602.3 301 583.7 301 564.8 301C546 301 527 301 508.2 301C489.3 301 470.7 301 451.8 301C433 301 414 301 395.2 301C376.3 301 357.7 301 338.8 301C320 301 301 301 282.2 301C263.3 301 244.7 301 225.8 301C207 301 188 301 169.2 301C150.3 301 131.7 301 112.8 301C94 301 75 301 56.2 301C37.3 301 18.7 301 9.3 301L0 301Z" fill="#308279"></path><path d="M0 193L9.3 185.8C18.7 178.7 37.3 164.3 56.2 162.8C75 161.3 94 172.7 112.8 171.5C131.7 170.3 150.3 156.7 169.2 159.2C188 161.7 207 180.3 225.8 187.2C244.7 194 263.3 189 282.2 187.3C301 185.7 320 187.3 338.8 181.3C357.7 175.3 376.3 161.7 395.2 163.3C414 165 433 182 451.8 185.7C470.7 189.3 489.3 179.7 508.2 174C527 168.3 546 166.7 564.8 172.2C583.7 177.7 602.3 190.3 621.2 189C640 187.7 659 172.3 677.8 172C696.7 171.7 715.3 186.3 734.2 184.3C753 182.3 772 163.7 790.8 159.8C809.7 156 828.3 167 847.2 173C866 179 885 180 903.8 177.3C922.7 174.7 941.3 168.3 950.7 165.2L960 162L960 301L950.7 301C941.3 301 922.7 301 903.8 301C885 301 866 301 847.2 301C828.3 301 809.7 301 790.8 301C772 301 753 301 734.2 301C715.3 301 696.7 301 677.8 301C659 301 640 301 621.2 301C602.3 301 583.7 301 564.8 301C546 301 527 301 508.2 301C489.3 301 470.7 301 451.8 301C433 301 414 301 395.2 301C376.3 301 357.7 301 338.8 301C320 301 301 301 282.2 301C263.3 301 244.7 301 225.8 301C207 301 188 301 169.2 301C150.3 301 131.7 301 112.8 301C94 301 75 301 56.2 301C37.3 301 18.7 301 9.3 301L0 301Z" fill="#26736b"></path><path d="M0 215L9.3 215.2C18.7 215.3 37.3 215.7 56.2 213.7C75 211.7 94 207.3 112.8 202.2C131.7 197 150.3 191 169.2 188.8C188 186.7 207 188.3 225.8 192.5C244.7 196.7 263.3 203.3 282.2 208.5C301 213.7 320 217.3 338.8 216.7C357.7 216 376.3 211 395.2 205.5C414 200 433 194 451.8 196.3C470.7 198.7 489.3 209.3 508.2 214.3C527 219.3 546 218.7 564.8 220.3C583.7 222 602.3 226 621.2 227.5C640 229 659 228 677.8 219C696.7 210 715.3 193 734.2 189.2C753 185.3 772 194.7 790.8 200.7C809.7 206.7 828.3 209.3 847.2 203.5C866 197.7 885 183.3 903.8 183.2C922.7 183 941.3 197 950.7 204L960 211L960 301L950.7 301C941.3 301 922.7 301 903.8 301C885 301 866 301 847.2 301C828.3 301 809.7 301 790.8 301C772 301 753 301 734.2 301C715.3 301 696.7 301 677.8 301C659 301 640 301 621.2 301C602.3 301 583.7 301 564.8 301C546 301 527 301 508.2 301C489.3 301 470.7 301 451.8 301C433 301 414 301 395.2 301C376.3 301 357.7 301 338.8 301C320 301 301 301 282.2 301C263.3 301 244.7 301 225.8 301C207 301 188 301 169.2 301C150.3 301 131.7 301 112.8 301C94 301 75 301 56.2 301C37.3 301 18.7 301 9.3 301L0 301Z" fill="#1c655d"></path><path d="M0 199L9.3 200C18.7 201 37.3 203 56.2 211.3C75 219.7 94 234.3 112.8 240C131.7 245.7 150.3 242.3 169.2 234.8C188 227.3 207 215.7 225.8 216.5C244.7 217.3 263.3 230.7 282.2 230C301 229.3 320 214.7 338.8 212C357.7 209.3 376.3 218.7 395.2 225.7C414 232.7 433 237.3 451.8 238.3C470.7 239.3 489.3 236.7 508.2 234.7C527 232.7 546 231.3 564.8 228.8C583.7 226.3 602.3 222.7 621.2 225.5C640 228.3 659 237.7 677.8 242.5C696.7 247.3 715.3 247.7 734.2 242C753 236.3 772 224.7 790.8 217C809.7 209.3 828.3 205.7 847.2 205.8C866 206 885 210 903.8 214.3C922.7 218.7 941.3 223.3 950.7 225.7L960 228L960 301L950.7 301C941.3 301 922.7 301 903.8 301C885 301 866 301 847.2 301C828.3 301 809.7 301 790.8 301C772 301 753 301 734.2 301C715.3 301 696.7 301 677.8 301C659 301 640 301 621.2 301C602.3 301 583.7 301 564.8 301C546 301 527 301 508.2 301C489.3 301 470.7 301 451.8 301C433 301 414 301 395.2 301C376.3 301 357.7 301 338.8 301C320 301 301 301 282.2 301C263.3 301 244.7 301 225.8 301C207 301 188 301 169.2 301C150.3 301 131.7 301 112.8 301C94 301 75 301 56.2 301C37.3 301 18.7 301 9.3 301L0 301Z" fill="#10574f"></path><path d="M0 239L9.3 242.7C18.7 246.3 37.3 253.7 56.2 257.7C75 261.7 94 262.3 112.8 263.5C131.7 264.7 150.3 266.3 169.2 262.7C188 259 207 250 225.8 246.8C244.7 243.7 263.3 246.3 282.2 251.2C301 256 320 263 338.8 261.5C357.7 260 376.3 250 395.2 246C414 242 433 244 451.8 243.5C470.7 243 489.3 240 508.2 241.7C527 243.3 546 249.7 564.8 252.8C583.7 256 602.3 256 621.2 253.3C640 250.7 659 245.3 677.8 246.7C696.7 248 715.3 256 734.2 255.7C753 255.3 772 246.7 790.8 244.7C809.7 242.7 828.3 247.3 847.2 251.3C866 255.3 885 258.7 903.8 259C922.7 259.3 941.3 256.7 950.7 255.3L960 254L960 301L950.7 301C941.3 301 922.7 301 903.8 301C885 301 866 301 847.2 301C828.3 301 809.7 301 790.8 301C772 301 753 301 734.2 301C715.3 301 696.7 301 677.8 301C659 301 640 301 621.2 301C602.3 301 583.7 301 564.8 301C546 301 527 301 508.2 301C489.3 301 470.7 301 451.8 301C433 301 414 301 395.2 301C376.3 301 357.7 301 338.8 301C320 301 301 301 282.2 301C263.3 301 244.7 301 225.8 301C207 301 188 301 169.2 301C150.3 301 131.7 301 112.8 301C94 301 75 301 56.2 301C37.3 301 18.7 301 9.3 301L0 301Z" fill="#044a42"></path></svg>