<svg id="visual" viewBox="0 0 960 300" width="960" height="300" xmlns="http://www.w3.org/2000/svg" xmlns:xlink="http://www.w3.org/1999/xlink" version="1.1"><rect x="0" y="0" width="960" height="300" fill="#3A9188"></rect><path d="M0 104L80 97L160 97L240 130L320 103L400 84L480 94L560 54L640 51L720 50L800 65L880 122L960 104L960 301L880 301L800 301L720 301L640 301L560 301L480 301L400 301L320 301L240 301L160 301L80 301L0 301Z" fill="#3a9188"></path><path d="M0 136L80 162L160 121L240 149L320 105L400 149L480 127L560 165L640 138L720 101L800 148L880 149L960 141L960 301L880 301L800 301L720 301L640 301L560 301L480 301L400 301L320 301L240 301L160 301L80 301L0 301Z" fill="#308279"></path><path d="M0 161L80 129L160 148L240 138L320 187L400 165L480 173L560 136L640 186L720 139L800 167L880 174L960 193L960 301L880 301L800 301L720 301L640 301L560 301L480 301L400 301L320 301L240 301L160 301L80 301L0 301Z" fill="#26736b"></path><path d="M0 186L80 208L160 215L240 163L320 208L400 211L480 190L560 166L640 201L720 181L800 223L880 172L960 224L960 301L880 301L800 301L720 301L640 301L560 301L480 301L400 301L320 301L240 301L160 301L80 301L0 301Z" fill="#1c655d"></path><path d="M0 247L80 203L160 232L240 230L320 198L400 213L480 222L560 232L640 243L720 238L800 208L880 221L960 201L960 301L880 301L800 301L720 301L640 301L560 301L480 301L400 301L320 301L240 301L160 301L80 301L0 301Z" fill="#10574f"></path><path d="M0 247L80 276L160 277L240 244L320 267L400 238L480 242L560 249L640 240L720 242L800 237L880 266L960 252L960 301L880 301L800 301L720 301L640 301L560 301L480 301L400 301L320 301L240 301L160 301L80 301L0 301Z" fill="#044a42"></path></svg>