<svg id="visual" viewBox="0 0 960 300" width="960" height="300" xmlns="http://www.w3.org/2000/svg" xmlns:xlink="http://www.w3.org/1999/xlink" version="1.1"><rect x="0" y="0" width="960" height="300" fill="#3A9188"></rect><path d="M0 109L80 79L160 106L240 84L320 86L400 70L480 69L560 110L640 123L720 88L800 94L880 121L960 72L960 301L880 301L800 301L720 301L640 301L560 301L480 301L400 301L320 301L240 301L160 301L80 301L0 301Z" fill="#3a9188"></path><path d="M0 111L80 120L160 142L240 150L320 124L400 137L480 119L560 121L640 132L720 135L800 151L880 153L960 149L960 301L880 301L800 301L720 301L640 301L560 301L480 301L400 301L320 301L240 301L160 301L80 301L0 301Z" fill="#308279"></path><path d="M0 154L80 141L160 171L240 180L320 157L400 151L480 169L560 173L640 160L720 161L800 141L880 169L960 169L960 301L880 301L800 301L720 301L640 301L560 301L480 301L400 301L320 301L240 301L160 301L80 301L0 301Z" fill="#26736b"></path><path d="M0 177L80 199L160 175L240 208L320 180L400 195L480 206L560 181L640 185L720 190L800 178L880 201L960 208L960 301L880 301L800 301L720 301L640 301L560 301L480 301L400 301L320 301L240 301L160 301L80 301L0 301Z" fill="#1c655d"></path><path d="M0 229L80 220L160 238L240 219L320 218L400 229L480 211L560 230L640 239L720 210L800 216L880 209L960 209L960 301L880 301L800 301L720 301L640 301L560 301L480 301L400 301L320 301L240 301L160 301L80 301L0 301Z" fill="#10574f"></path><path d="M0 267L80 261L160 264L240 256L320 263L400 260L480 263L560 244L640 264L720 253L800 248L880 247L960 264L960 301L880 301L800 301L720 301L640 301L560 301L480 301L400 301L320 301L240 301L160 301L80 301L0 301Z" fill="#044a42"></path></svg>